#!OML:ASF H:\Male1\Project 1\Capture day 1\Session 1\Male1.ASF
:FULLY-SPECIFIED
:DEGREES
194
root 5.49212 13.9463 1.04015 -34.6444 84.8944 -31.1389
lowerback 34.0519 2.04443 -0.984117
upperback 12.0375 3.75876 2.05
thorax -4.25717 2.29746 1.36621
lowerneck -6.2875 3.02149 6.336
upperneck -5.29301 3.63502 -8.2969
head -0.296748 1.79568 -3.75432
rclavicle -1.23246e-014 1.55052e-014
rhumerus -77.3205 21.7692 -67.6635
rradius 55.4027
rwrist -46.0889
rhand -19.8616 6.31164
rfingers 7.12502
rthumb 6.47344 -23.5694
lclavicle -1.23246e-014 1.55052e-014
lhumerus -95.2379 -6.53193 71.1625
lradius 48.7088
lwrist 9.7015
lhand -44.5456 1.42711
lfingers 7.12502
lthumb -17.3464 30.673
rfemur -36.9108 4.93147 27.2176
rtibia 58.3008
rfoot -19.6302 -18.0446
rtoes -19.3144
lfemur -41.366 -7.21207 -17.5423
ltibia 57.7739
lfoot -16.3411 8.302
ltoes -24.9046
195
root 5.89561 13.5713 1.06354 -44.7492 82.8349 -43.1311
lowerback 32.6058 1.87469 0.456248
upperback 12.278 3.94897 2.35615
thorax -3.90855 2.39831 0.9693
lowerneck -7.00337 3.3278 6.15163
upperneck -5.83794 4.02725 -8.1202
head -0.326262 1.99783 -3.63958
rclavicle 4.77083e-015 -1.61016e-014
rhumerus -73.2232 19.9378 -69.9848
rradius 51.2801
rwrist -45.1772
rhand -21.7862 5.42847
rfingers 7.12502
rthumb 4.61521 -24.5013
lclavicle 4.77083e-015 -1.61016e-014
lhumerus -92.1722 -3.26767 68.5308
lradius 41.0572
lwrist 11.6491
lhand -42.5863 2.59124
lfingers 7.12502
lthumb -15.4599 31.993
rfemur -41.7602 7.3188 29.908
rtibia 65.5113
rfoot -21.2969 -19.9262
rtoes -20.633
lfemur -46.7373 -6.69435 -14.8497
ltibia 65.3673
lfoot -16.104 7.41154
ltoes -19.4786
196
root 6.2603 13.3203 1.05691 -38.0693 81.5891 -38.7812
lowerback 32.2478 2.11784 0.0812999
upperback 11.8074 4.02355 2.09184
thorax -4.29398 2.38571 0.862311
lowerneck -7.90041 3.84243 6.52625
upperneck -6.45167 4.64732 -8.43783
head -0.303758 2.30546 -3.79449
rclavicle -2.78299e-015 3.27995e-015
rhumerus -67.5879 18.0936 -70.9564
rradius 47.2752
rwrist -44.3751
rhand -21.4381 4.43499
rfingers 7.12502
rthumb 4.95133 -25.4872
lclavicle -2.78299e-015 3.27995e-015
lhumerus -88.7811 0.65272 64.3826
lradius 34.7624
lwrist 16.0948
lhand -40.7705 5.16726
lfingers 7.12502
lthumb -13.7105 34.6956
rfemur -46.5596 7.21466 30.6908
rtibia 71.8564
rfoot -22.2669 -19.7789
rtoes -24.1102
lfemur -50.8496 -5.43901 -14.7262
ltibia 71.5914
lfoot -20.2154 6.44374
ltoes -11.0419
197
root 6.59606 13.1398 1.05193 -28.7408 81.6732 -31.3373
lowerback 33.5835 2.34852 -1.09017
upperback 10.7854 3.84731 1.67668
thorax -5.42444 2.24638 0.979558
lowerneck -8.82384 4.16222 6.60894
upperneck -7.34773 5.02278 -8.76149
head -0.394371 2.50476 -3.90551
rclavicle 2.13694e-014 -4.37326e-015
rhumerus -61.756 15.3196 -71.1008
rradius 43.6871
rwrist -43.3091
rhand -21.0266 4.94248
rfingers 7.12502
rthumb 5.34867 -24.97
lclavicle 2.13694e-014 -4.37326e-015
lhumerus -84.8334 4.58737 58.9629
lradius 28.8494
lwrist 18.0053
lhand -38.0376 4.88431
lfingers 7.12502
lthumb -11.0755 34.5721
rfemur -50.5227 5.14839 30.1788
rtibia 77.4014
rfoot -22.7441 -18.6138
rtoes -26.4664
lfemur -53.4827 -5.2068 -16.0656
ltibia 75.9176
lfoot -22.8917 8.51802
ltoes -13.5349
198
root 6.90498 12.9133 1.05006 -29.3164 80.8094 -34.7797
lowerback 33.9949 2.2587 -0.579566
upperback 10.1009 3.8114 1.60518
thorax -6.28755 2.19676 0.609565
lowerneck -9.22857 4.44453 6.73844
upperneck -9.34285 5.35232 -9.04729
head -0.942129 2.71673 -4.04953
rclavicle 3.70609e-014 6.18842e-014
rhumerus -55.1669 11.5736 -70.8805
rradius 40.6339
rwrist -41.8901
rhand -21.6729 3.31726
rfingers 7.12502
rthumb 4.72457 -26.6101
lclavicle 3.70609e-014 6.18842e-014
lhumerus -80.3403 9.44812 52.4369
lradius 24.1512
lwrist 14.8029
lhand -34.9135 5.97239
lfingers 7.12502
lthumb -8.06131 35.7986
rfemur -55.4951 4.34132 31.5662
rtibia 82.4075
rfoot -22.2937 -18.1015
rtoes -27.6308
lfemur -57.785 -4.47203 -15.1713
ltibia 80.1562
lfoot -25.0143 8.60162
ltoes -12.3244
199
root 7.19822 12.7506 1.04649 -23.2177 80.3853 -31.6876
lowerback 33.5935 2.37364 -1.11639
upperback 9.92246 3.70073 1.25344
thorax -6.33153 2.1244 0.575332
lowerneck -9.03282 4.74011 6.86019
upperneck -12.6222 5.72963 -9.34009
head -2.03407 3.00326 -4.26738
rclavicle 3.70733e-014 2.72335e-014
rhumerus -47.5438 6.41096 -70.2592
rradius 38.367
rwrist -40.2004
rhand -23.0142 5.3744
rfingers 7.12502
rthumb 3.42934 -24.5778
lclavicle 3.70733e-014 2.72335e-014
lhumerus -75.5108 15.5711 46.9464
lradius 20.3571
lwrist 6.36821
lhand -36.5979 0.914375
lfingers 7.12502
lthumb -9.6867 30.6716
rfemur -60.6307 3.56266 31.7109
rtibia 86.6788
rfoot -21.5415 -17.1395
rtoes -27.7012
lfemur -61.6054 -2.98272 -15.8061
ltibia 83.35
lfoot -26.7342 8.01298
ltoes -11.2719
200
root 7.49749 12.5922 1.0447 -21.4419 80.1797 -32.7784
lowerback 32.6843 2.12169 -1.01444
upperback 10.3962 3.39718 1.06927
thorax -6.07309 1.97881 0.51115
lowerneck -7.9435 4.97388 7.09307
upperneck -17.0725 5.96855 -10.2647
head -3.23258 3.31382 -4.36659
rclavicle 4.75095e-014 -4.21423e-014
rhumerus -39.7761 0.542061 -70.318
rradius 37.2333
rwrist -38.5952
rhand -24.9615 6.79226
rfingers 7.12502
rthumb 1.54873 -23.1819
lclavicle 4.75095e-014 -4.21423e-014
lhumerus -70.1692 21.7414 45.1701
lradius 18.8243
lwrist -2.94054
lhand -39.2661 0.609629
lfingers 7.12502
lthumb -12.2602 30.2303
rfemur -64.4784 2.3989 32.6042
rtibia 89.8523
rfoot -21.2692 -17.0285
rtoes -28.8815
lfemur -65.0673 -1.76384 -16.0767
ltibia 86.2852
lfoot -28.4022 7.37158
ltoes -10.3286
201
root 7.82326 12.5273 1.04347 -20.8226 79.4937 -34.3562
lowerback 32.8218 1.9508 -0.74285
upperback 10.5698 3.25879 0.960012
thorax -5.91329 1.91521 0.284083
lowerneck -6.33493 5.0448 7.71684
upperneck -21.3922 5.95402 -11.5625
head -4.72845 3.50388 -5.10041
rclavicle 4.27387e-014 7.15625e-015
rhumerus -31.4374 -5.13768 -72.0198
rradius 37.292
rwrist -39.333
rhand -28.3915 9.2851
rfingers 7.12502
rthumb -1.76407 -20.6873
lclavicle 4.27387e-014 7.15625e-015
lhumerus -62.2691 27.2349 47.7258
lradius 18.0482
lwrist -8.73617
lhand -40.4402 4.811
lfingers 7.12502
lthumb -13.3921 34.3606
rfemur -65.1277 1.87736 33.7717
rtibia 90.915
rfoot -24.4352 -17.4319
rtoes -28.2247
lfemur -66.8583 -0.0597263 -16.276
ltibia 88.2897
lfoot -29.9257 7.65972
ltoes -12.479
202
root 8.16456 12.495 1.03929 -20.4067 78.9986 -35.0194
lowerback 33.5599 1.59378 -0.509494
upperback 10.5711 2.90678 0.860053
thorax -5.55199 1.76252 0.143021
lowerneck -3.60528 5.15356 6.8712
upperneck -25.2924 6.27548 -11.2245
head -6.43718 3.86655 -5.14992
rclavicle 7.95139e-016 4.67144e-014
rhumerus -21.9647 -8.48559 -75.586
rradius 37.4268
rwrist -43.582
rhand -32.6322 8.22929
rfingers 7.12502
rthumb -5.85915 -21.6697
lclavicle 7.95139e-016 4.67144e-014
lhumerus -50.7006 29.6015 55.918
lradius 18.7578
lwrist -3.78148
lhand -40.3094 7.16217
lfingers 7.12502
lthumb -13.266 36.72
rfemur -64.0609 1.23528 34.4989
rtibia 91.3012
rfoot -27.6021 -17.5271
rtoes -26.7331
lfemur -67.0329 1.30258 -17.0381
ltibia 89.8016
lfoot -31.4585 7.30108
ltoes -8.28069
203
root 8.49317 12.4844 1.04043 -19.8494 78.9928 -35.4044
lowerback 33.6025 1.24014 -0.171187
upperback 10.9159 2.59503 0.733288
thorax -5.17369 1.63442 -0.0536771
lowerneck -2.10479 5.3522 7.68337
upperneck -26.4104 6.37025 -12.517
head -6.94939 3.99439 -5.84369
rclavicle -3.22031e-014 3.97569e-016
rhumerus -12.5278 -10.4632 -80.362
rradius 39.0024
rwrist -47.0217
rhand -35.3549 6.04794
rfingers 7.12502
rthumb -8.48724 -23.7615
lclavicle -3.22031e-014 3.97569e-016
lhumerus -36.4575 26.331 66.9137
lradius 21.6473
lwrist 7.45136
lhand -41.5757 4.57775
lfingers 7.12502
lthumb -14.4864 34.052
rfemur -62.997 0.587563 34.8047
rtibia 91.3374
rfoot -30.1078 -17.5962
rtoes -25.1383
lfemur -67.1394 1.98116 -18.0483
ltibia 90.939
lfoot -31.8201 7.90142
ltoes -9.04928
204
root 8.81047 12.5197 1.04804 -17.4173 79.7496 -33.6863
lowerback 32.5429 0.95021 0.165578
upperback 11.4703 2.33203 0.566384
thorax -4.69687 1.52721 -0.312302
lowerneck 1.56688 5.62646 7.20473
upperneck -28.3506 6.79234 -12.7662
head -8.21681 4.3506 -6.16455
rclavicle -9.54166e-015 -1.70955e-014
rhumerus -4.50112 -9.26731 -85.2493
rradius 42.5202
rwrist -50.1603
rhand -35.6337 10.2013
rfingers 7.12502
rthumb -8.75634 -19.5971
lclavicle -9.54166e-015 -1.70955e-014
lhumerus -22.4331 19.5543 75.4638
lradius 24.5645
lwrist 13.0503
lhand -39.9827 2.4813
lfingers 7.12502
lthumb -12.9511 32.0594
rfemur -62.7737 0.138395 34.1163
rtibia 91.885
rfoot -29.973 -18.1348
rtoes -27.0142
lfemur -66.7884 1.53218 -19.4077
ltibia 91.4081
lfoot -31.101 9.09898
ltoes -11.673
205
root 9.12523 12.6081 1.05969 -16.394 79.6849 -32.9495
lowerback 32.7225 0.982727 0.282745
upperback 11.7788 2.43929 0.525019
thorax -4.41572 1.59737 -0.460398
lowerneck 2.10926 5.75076 6.88736
upperneck -28.9035 7.02726 -12.5201
head -8.51185 4.49493 -6.10696
rclavicle -2.0276e-014 -7.55382e-015
rhumerus 3.9895 -4.18069 -88.9662
rradius 46.704
rwrist -52.9281
rhand -36.2897 9.40444
rfingers 7.12502
rthumb -9.38933 -20.3664
lclavicle -2.0276e-014 -7.55382e-015
lhumerus -9.31415 15.9059 80.0034
lradius 29.8899
lwrist 26.5206
lhand -18.6592 -2.57014
lfingers 7.12502
lthumb 7.63413 27.2721
rfemur -61.719 0.552275 33.8078
rtibia 91.878
rfoot -28.6127 -18.8728
rtoes -28.1247
lfemur -65.3001 1.41091 -19.1229
ltibia 91.2643
lfoot -30.8672 7.51441
ltoes -11.1911
206
root 9.50381 12.7475 1.06238 -12.2667 80.2643 -29.114
lowerback 31.9691 0.831411 -0.0613823
upperback 12.1979 2.16824 0.296086
thorax -3.60813 1.48441 -0.389813
lowerneck 0.894814 5.75722 6.78284
upperneck -28.7348 7.10078 -12.1463
head -8.25131 4.50284 -5.89095
rclavicle -3.37934e-015 7.25564e-015
rhumerus 12.4824 2.77319 -90.2231
rradius 50.8194
rwrist -53.9399
rhand -37.3451 9.24897
rfingers 7.12502
rthumb -10.4076 -20.4734
lclavicle -3.37934e-015 7.25564e-015
lhumerus 2.52404 12.6026 83.1042
lradius 38.7681
lwrist 43.7072
lhand -10.3487 0.770065
lfingers 7.12502
lthumb 15.6478 30.1572
rfemur -60.1319 0.17313 32.3881
rtibia 91.5121
rfoot -27.5641 -18.7542
rtoes -26.5087
lfemur -62.79 0.422651 -19.8094
ltibia 90.2822
lfoot -30.7714 7.33241
ltoes -10.9526
